<?xml version="1.0" standalone="no"?>
<!DOCTYPE svg PUBLIC "-//W3C//DTD SVG 20010904//EN"
 "http://www.w3.org/TR/2001/REC-SVG-20010904/DTD/svg10.dtd">
<svg version="1.0" xmlns="http://www.w3.org/2000/svg"
 width="417.000000pt" height="511.000000pt" viewBox="0 0 417.000000 511.000000"
 preserveAspectRatio="xMidYMid meet">

<g transform="translate(0.000000,511.000000) scale(0.100000,-0.100000)"
fill="#000000" stroke="none">
<path d="M2426 4334 c-21 -21 -20 -67 2 -92 13 -15 34 -22 87 -26 46 -3 59 -2
38 3 -18 5 -44 16 -58 25 -19 12 -30 14 -39 7 -31 -26 -48 37 -20 77 18 26 12
29 -10 6z"/>
<path d="M2460 4063 c-32 -12 -50 -37 -50 -70 0 -46 27 -69 91 -77 96 -12 146
-35 209 -93 70 -64 116 -148 126 -231 8 -71 18 -90 51 -103 36 -14 81 6 89 38
11 41 -4 149 -27 203 -12 28 -24 49 -26 46 -3 -2 0 -14 7 -25 9 -17 8 -21 -5
-21 -9 0 -14 4 -10 10 3 5 -3 18 -15 30 -11 11 -20 30 -20 43 l0 22 21 -25 20
-25 -16 34 c-20 40 -87 115 -129 143 -24 16 -22 12 9 -16 22 -21 31 -33 20
-28 -11 5 -30 8 -42 7 -15 -1 -25 5 -29 19 -4 12 -14 27 -23 34 -14 12 -13 13
7 9 34 -8 27 0 -26 27 -71 36 -196 63 -232 49z"/>
<path d="M1165 3786 c-56 -18 -87 -35 -80 -46 3 -6 0 -7 -8 -4 -19 7 -94 -77
-119 -134 -12 -25 -49 -125 -84 -222 -34 -96 -110 -307 -168 -469 -115 -319
-124 -365 -85 -414 33 -44 72 -48 367 -45 l274 3 -24 30 c-12 16 -33 59 -44
95 l-21 65 -124 3 c-192 4 -192 6 -81 312 39 107 118 328 175 490 58 162 110
307 116 323 10 26 9 27 -22 26 -17 0 -50 -6 -72 -13z m85 -6 c0 -5 -7 -7 -15
-4 -8 4 -15 8 -15 10 0 2 7 4 15 4 8 0 15 -4 15 -10z m-39 -107 c-12 -20 -14
-14 -5 12 4 9 9 14 11 11 3 -2 0 -13 -6 -23z"/>
<path d="M1549 3787 c-139 -39 -229 -145 -258 -302 -7 -35 -11 -209 -11 -435
0 -403 4 -438 52 -510 13 -19 45 -45 73 -59 47 -25 58 -26 247 -29 109 -2 198
-6 198 -8 0 -3 -9 -23 -20 -44 -24 -46 -62 -69 -131 -77 -59 -7 -86 -26 -98
-70 l-10 -33 420 0 c454 0 433 -3 408 53 -13 28 -48 47 -86 47 -46 0 -108 37
-131 79 -12 21 -22 41 -22 44 0 3 215 7 478 9 473 3 478 4 535 27 65 25 131
77 120 94 -3 5 -1 7 5 3 20 -12 86 103 68 121 -3 4 -6 -1 -6 -9 0 -24 -24 -40
-38 -26 -7 7 -12 9 -12 4 0 -4 -7 0 -16 9 -12 11 -20 13 -29 5 -9 -7 -16 -6
-25 5 -7 8 -9 15 -6 15 4 0 -2 9 -13 21 -11 12 -24 18 -29 15 -6 -3 -12 -2
-14 4 -2 6 -12 12 -24 14 -17 3 -21 -1 -21 -22 0 -41 -47 -108 -95 -136 -64
-36 -141 -48 -303 -45 -112 2 -145 6 -150 17 -3 9 -13 11 -27 7 -21 -6 -22 -5
-5 8 9 8 17 17 17 21 0 3 -8 7 -17 7 -10 1 5 7 32 14 45 12 28 13 -185 15
-129 1 -239 3 -245 5 -5 1 -153 3 -328 3 l-318 2 -24 25 -25 24 0 378 c0 377
0 378 24 429 26 57 54 81 103 90 60 11 96 -11 212 -132 122 -127 159 -149 224
-138 36 6 56 22 155 125 130 135 174 161 240 141 48 -14 77 -45 97 -101 12
-36 15 -105 15 -397 l0 -354 23 0 c63 1 152 72 164 131 6 32 15 36 33 14 17
-21 110 -53 187 -65 135 -20 140 -21 116 -10 -14 6 -21 15 -17 24 3 9 -3 17
-17 21 -34 11 -119 9 -130 -2 -12 -12 -61 -2 -83 16 -7 6 -16 8 -20 4 -4 -4
-4 0 0 10 5 14 9 15 20 6 10 -8 14 -8 14 -1 0 6 -10 17 -22 23 -13 7 -26 17
-30 22 -5 9 -15 11 -61 16 -5 1 -6 5 -3 10 3 5 -5 9 -19 9 -50 0 -52 10 -58
268 -3 135 -10 255 -16 276 -19 61 -72 131 -121 158 -60 33 -146 33 -210 0
-25 -12 -93 -69 -151 -126 -75 -73 -114 -104 -131 -104 -17 0 -57 33 -141 117
-113 113 -140 151 -97 140 11 -3 17 -1 14 4 -3 6 -23 8 -45 6 -28 -3 -39 0
-39 10 0 7 3 12 8 11 4 -2 7 2 7 7 0 6 -7 9 -15 8 -11 -1 -9 3 4 13 11 8 25
14 30 14 6 0 4 -5 -4 -10 -8 -5 -10 -10 -5 -10 6 0 16 4 23 9 10 6 5 12 -20
20 -52 18 -139 22 -189 8z m1131 -933 c0 -2 -9 -4 -21 -4 -11 0 -18 4 -14 10
5 8 35 3 35 -6z m30 -18 c0 -21 -20 -30 -33 -16 -9 9 -8 11 3 8 8 -2 14 3 13
10 -2 6 2 12 7 12 6 0 10 -6 10 -14z"/>
<path d="M1780 3756 c0 -3 9 -10 20 -16 11 -6 20 -8 20 -6 0 3 -9 10 -20 16
-11 6 -20 8 -20 6z"/>
<path d="M1910 3645 c47 -47 87 -85 90 -85 2 0 -33 38 -80 85 -47 47 -87 85
-90 85 -2 0 33 -38 80 -85z"/>
<path d="M3121 3644 c0 -11 3 -14 6 -6 3 7 2 16 -1 19 -3 4 -6 -2 -5 -13z"/>
<path d="M3131 3548 c-2 -36 43 -65 89 -58 19 2 50 30 50 44 0 6 -5 4 -10 -4
-5 -8 -13 -15 -17 -16 -4 0 -16 -4 -26 -8 -29 -13 -65 2 -75 31 -7 18 -11 22
-11 11z"/>
<path d="M1877 3193 c-4 -3 -7 -91 -7 -193 0 -198 5 -219 46 -203 16 6 272
157 280 166 2 2 -13 1 -33 -1 -19 -3 -38 0 -42 5 -3 5 -33 28 -66 51 -33 23
-71 59 -85 81 -21 35 -58 58 -84 52 -5 -1 -6 10 -4 24 6 27 5 29 -5 18z"/>
<path d="M2946 3121 c-10 -11 -16 -29 -13 -43 l4 -23 2 24 c0 14 8 33 18 43 9
10 14 18 11 18 -3 0 -13 -9 -22 -19z"/>
<path d="M2952 3034 c10 -10 20 -16 22 -13 3 3 -5 11 -17 18 -21 13 -21 12 -5
-5z"/>
<path d="M3098 2993 c7 -3 16 -2 19 1 4 3 -2 6 -13 5 -11 0 -14 -3 -6 -6z"/>
<path d="M3393 2755 c0 -22 2 -30 4 -17 2 12 2 30 0 40 -3 9 -5 -1 -4 -23z"/>
<path d="M2875 2017 c-150 -40 -222 -127 -213 -258 3 -47 10 -66 35 -96 44
-55 95 -80 249 -119 154 -38 187 -58 182 -108 -9 -93 -206 -103 -371 -19 -27
13 -50 23 -52 21 -5 -6 -65 -128 -65 -133 0 -2 27 -18 60 -35 93 -47 177 -63
307 -58 104 4 117 7 180 39 48 24 76 47 98 77 28 40 30 50 30 127 0 78 -2 85
-31 122 -43 52 -97 78 -245 114 -153 37 -189 56 -189 99 0 91 157 118 317 54
35 -14 65 -24 67 -22 1 1 14 32 29 68 26 61 27 66 10 78 -65 48 -294 76 -398
49z"/>
<path d="M867 2013 c-4 -3 -7 -183 -7 -400 l0 -393 300 0 300 0 0 80 0 80
-205 0 -205 0 0 320 0 320 -88 0 c-49 0 -92 -3 -95 -7z"/>
<path d="M1580 1620 l0 -400 90 0 90 0 2 231 3 231 120 -191 120 -192 44 3 45
3 116 193 115 192 3 -235 2 -235 90 0 90 0 0 400 0 400 -78 0 c-63 0 -82 -4
-94 -17 -8 -10 -75 -118 -149 -240 -74 -123 -137 -223 -140 -223 -4 0 -74 108
-155 240 l-149 240 -82 0 -83 0 0 -400z"/>
<path d="M2582 1098 c-26 -26 1 -65 38 -53 16 5 20 14 18 33 -3 30 -35 41 -56
20z"/>
<path d="M1150 1030 c0 -23 -4 -30 -20 -30 -15 0 -20 -7 -20 -25 0 -18 5 -25
20 -25 18 0 20 -7 20 -80 0 -99 15 -120 86 -120 41 0 45 2 42 23 -2 17 -9 21
-26 19 -40 -6 -52 14 -52 89 l0 69 35 0 c31 0 35 3 35 25 0 22 -4 25 -35 25
-32 0 -35 2 -35 30 0 25 -4 30 -25 30 -21 0 -25 -5 -25 -30z"/>
<path d="M908 980 c-21 -16 -28 -30 -28 -55 0 -39 23 -59 80 -70 61 -12 70
-16 70 -35 0 -26 -43 -36 -94 -22 -35 9 -43 9 -54 -6 -11 -15 -9 -19 15 -29
36 -15 115 -16 147 -2 37 17 53 62 32 93 -16 25 -26 30 -87 40 -21 4 -43 14
-50 22 -11 14 -10 18 6 30 22 16 54 18 89 4 21 -8 26 -6 31 11 9 29 2 33 -68
37 -52 3 -66 0 -89 -18z"/>
<path d="M1340 875 l0 -125 25 0 c24 0 25 2 25 74 0 84 22 126 66 126 19 0 24
5 24 25 0 19 -5 25 -23 25 -12 0 -33 -7 -45 -16 -20 -14 -22 -14 -22 0 0 10
-9 16 -25 16 l-25 0 0 -125z"/>
<path d="M1568 984 c-78 -42 -76 -178 2 -219 38 -20 119 -19 148 1 18 12 20
19 12 35 -10 18 -13 18 -33 4 -33 -23 -84 -19 -113 10 -14 14 -22 30 -19 35 3
6 49 10 102 10 l95 0 -7 36 c-13 71 -52 104 -123 104 -20 -1 -49 -7 -64 -16z
m117 -49 c39 -38 32 -45 -50 -45 -46 0 -75 4 -75 10 0 21 49 60 75 60 14 0 37
-11 50 -25z"/>
<path d="M1832 988 c-13 -6 -21 -18 -20 -27 4 -17 18 -18 79 -6 30 6 41 3 58
-14 34 -34 21 -45 -51 -51 -36 -3 -72 -11 -81 -19 -24 -19 -22 -76 3 -101 25
-25 95 -27 128 -4 20 14 22 14 22 0 0 -11 9 -16 26 -16 l26 0 -4 101 c-3 96
-4 102 -31 125 -22 19 -39 24 -80 23 -29 0 -62 -5 -75 -11z m133 -138 c4 -6
-1 -22 -9 -35 -16 -25 -54 -33 -90 -19 -21 8 -20 40 2 53 23 14 89 14 97 1z"/>
<path d="M2100 875 l0 -125 25 0 c25 0 25 1 25 78 0 95 15 122 65 122 46 0 55
-20 55 -119 l0 -81 30 0 30 0 0 83 c0 93 13 117 63 117 46 0 57 -23 57 -116 0
-83 0 -84 25 -84 25 0 25 0 25 96 0 92 -1 97 -29 125 -36 35 -95 40 -132 10
-24 -19 -25 -19 -48 0 -28 23 -88 25 -119 3 -20 -14 -22 -14 -22 0 0 10 -9 16
-25 16 l-25 0 0 -125z"/>
<path d="M2580 876 l0 -126 28 0 27 0 0 123 0 122 -28 3 -27 3 0 -125z"/>
<path d="M2717 993 c-4 -3 -7 -60 -7 -125 l0 -118 30 0 30 0 0 78 c0 94 15
122 64 122 53 0 66 -24 66 -118 0 -81 0 -82 25 -82 25 0 25 1 25 90 0 49 -5
100 -11 113 -21 45 -102 63 -147 31 -20 -14 -22 -14 -22 0 0 16 -40 23 -53 9z"/>
<path d="M3068 982 c-39 -23 -62 -75 -53 -119 13 -73 103 -123 163 -92 15 7
30 15 35 17 4 2 7 -8 7 -21 0 -30 -42 -67 -77 -67 -13 0 -40 7 -60 15 -29 12
-38 13 -45 3 -13 -22 -9 -29 27 -44 44 -18 118 -18 154 0 43 23 51 54 51 196
l0 130 -25 0 c-16 0 -25 -6 -25 -16 0 -14 -2 -14 -22 0 -29 21 -96 20 -130 -2z
m135 -49 c24 -23 22 -77 -5 -103 -49 -45 -128 -13 -128 53 0 67 80 97 133 50z"/>
</g>
</svg>
